<?xml version="1.0" encoding="UTF-8"?>
<svg width="700pt" height="700pt" version="1.1" viewBox="0 0 700 700" xmlns="http://www.w3.org/2000/svg" xmlns:xlink="http://www.w3.org/1999/xlink">
 <defs>
  <symbol id="z" overflow="visible">
   <path d="m18.766-1.125c-0.96875 0.5-1.9805 0.875-3.0312 1.125-1.043 0.25781-2.1367 0.39062-3.2812 0.39062-3.3984 0-6.0898-0.94531-8.0781-2.8438-1.9922-1.9062-2.9844-4.4844-2.9844-7.7344 0-3.2578 0.99219-5.8359 2.9844-7.7344 1.9883-1.9062 4.6797-2.8594 8.0781-2.8594 1.1445 0 2.2383 0.13281 3.2812 0.39062 1.0508 0.25 2.0625 0.625 3.0312 1.125v4.2188c-0.98047-0.65625-1.9453-1.1406-2.8906-1.4531-0.94922-0.3125-1.9492-0.46875-3-0.46875-1.875 0-3.3516 0.60547-4.4219 1.8125-1.0742 1.1992-1.6094 2.8555-1.6094 4.9688 0 2.1055 0.53516 3.7617 1.6094 4.9688 1.0703 1.1992 2.5469 1.7969 4.4219 1.7969 1.0508 0 2.0508-0.14844 3-0.45312 0.94531-0.3125 1.9102-0.80078 2.8906-1.4688z"/>
  </symbol>
  <symbol id="c" overflow="visible">
   <path d="m13.734-11.141c-0.4375-0.19531-0.87109-0.34375-1.2969-0.4375-0.41797-0.10156-0.83984-0.15625-1.2656-0.15625-1.2617 0-2.2305 0.40625-2.9062 1.2188-0.67969 0.80469-1.0156 1.9531-1.0156 3.4531v7.0625h-4.8906v-15.312h4.8906v2.5156c0.625-1 1.3438-1.7266 2.1562-2.1875 0.82031-0.46875 1.8008-0.70312 2.9375-0.70312 0.16406 0 0.34375 0.011719 0.53125 0.03125 0.19531 0.011719 0.47656 0.039062 0.84375 0.078125z"/>
  </symbol>
  <symbol id="b" overflow="visible">
   <path d="m17.641-7.7031v1.4062h-11.453c0.125 1.1484 0.53906 2.0078 1.25 2.5781 0.70703 0.57422 1.7031 0.85938 2.9844 0.85938 1.0312 0 2.082-0.14844 3.1562-0.45312 1.082-0.3125 2.1914-0.77344 3.3281-1.3906v3.7656c-1.1562 0.4375-2.3125 0.76562-3.4688 0.98438-1.1562 0.22656-2.3125 0.34375-3.4688 0.34375-2.7734 0-4.9297-0.70312-6.4688-2.1094-1.5312-1.4062-2.2969-3.3789-2.2969-5.9219 0-2.5 0.75391-4.4609 2.2656-5.8906 1.5078-1.4375 3.582-2.1562 6.2188-2.1562 2.4062 0 4.332 0.73047 5.7812 2.1875 1.4453 1.4492 2.1719 3.3828 2.1719 5.7969zm-5.0312-1.625c0-0.92578-0.27344-1.6719-0.8125-2.2344-0.54297-0.57031-1.25-0.85938-2.125-0.85938-0.94922 0-1.7188 0.26562-2.3125 0.79688s-0.96484 1.2969-1.1094 2.2969z"/>
  </symbol>
  <symbol id="e" overflow="visible">
   <path d="m9.2188-6.8906c-1.0234 0-1.793 0.17188-2.3125 0.51562-0.51172 0.34375-0.76562 0.85547-0.76562 1.5312 0 0.625 0.20703 1.1172 0.625 1.4688 0.41406 0.34375 0.98828 0.51562 1.7188 0.51562 0.92578 0 1.7031-0.32812 2.3281-0.98438 0.63281-0.66406 0.95312-1.4922 0.95312-2.4844v-0.5625zm7.4688-1.8438v8.7344h-4.9219v-2.2656c-0.65625 0.92969-1.3984 1.6055-2.2188 2.0312-0.82422 0.41406-1.8242 0.625-3 0.625-1.5859 0-2.8711-0.45703-3.8594-1.375-0.99219-0.92578-1.4844-2.1289-1.4844-3.6094 0-1.7891 0.61328-3.1016 1.8438-3.9375 1.2383-0.84375 3.1797-1.2656 5.8281-1.2656h2.8906v-0.39062c0-0.76953-0.30859-1.332-0.92188-1.6875-0.61719-0.36328-1.5703-0.54688-2.8594-0.54688-1.0547 0-2.0312 0.10547-2.9375 0.3125-0.89844 0.21094-1.7305 0.52344-2.5 0.9375v-3.7344c1.0391-0.25 2.0859-0.44141 3.1406-0.57812 1.0625-0.13281 2.125-0.20312 3.1875-0.20312 2.7578 0 4.75 0.54688 5.9688 1.6406 1.2266 1.0859 1.8438 2.8555 1.8438 5.3125z"/>
  </symbol>
  <symbol id="a" overflow="visible">
   <path d="m7.7031-19.656v4.3438h5.0469v3.5h-5.0469v6.5c0 0.71094 0.14062 1.1875 0.42188 1.4375s0.83594 0.375 1.6719 0.375h2.5156v3.5h-4.1875c-1.9375 0-3.3125-0.39844-4.125-1.2031-0.80469-0.8125-1.2031-2.1797-1.2031-4.1094v-6.5h-2.4219v-3.5h2.4219v-4.3438z"/>
  </symbol>
  <symbol id="l" overflow="visible">
   <path d="m12.766-13.078v-8.2031h4.9219v21.281h-4.9219v-2.2188c-0.66797 0.90625-1.4062 1.5703-2.2188 1.9844s-1.7578 0.625-2.8281 0.625c-1.8867 0-3.4336-0.75-4.6406-2.25-1.2109-1.5-1.8125-3.4258-1.8125-5.7812 0-2.3633 0.60156-4.2969 1.8125-5.7969 1.207-1.5 2.7539-2.25 4.6406-2.25 1.0625 0 2 0.21484 2.8125 0.64062 0.82031 0.42969 1.5664 1.0859 2.2344 1.9688zm-3.2188 9.9219c1.0391 0 1.8359-0.37891 2.3906-1.1406 0.55078-0.76953 0.82812-1.8828 0.82812-3.3438 0-1.457-0.27734-2.5664-0.82812-3.3281-0.55469-0.76953-1.3516-1.1562-2.3906-1.1562-1.043 0-1.8398 0.38672-2.3906 1.1562-0.55469 0.76172-0.82812 1.8711-0.82812 3.3281 0 1.4609 0.27344 2.5742 0.82812 3.3438 0.55078 0.76172 1.3477 1.1406 2.3906 1.1406z"/>
  </symbol>
  <symbol id="k" overflow="visible">
   <path d="m10.5-3.1562c1.0508 0 1.8516-0.37891 2.4062-1.1406 0.55078-0.76953 0.82812-1.8828 0.82812-3.3438 0-1.457-0.27734-2.5664-0.82812-3.3281-0.55469-0.76953-1.3555-1.1562-2.4062-1.1562-1.0547 0-1.8594 0.38672-2.4219 1.1562-0.55469 0.77344-0.82812 1.8828-0.82812 3.3281 0 1.4492 0.27344 2.5586 0.82812 3.3281 0.5625 0.77344 1.3672 1.1562 2.4219 1.1562zm-3.25-9.9219c0.67578-0.88281 1.4219-1.5391 2.2344-1.9688 0.82031-0.42578 1.7656-0.64062 2.8281-0.64062 1.8945 0 3.4453 0.75 4.6562 2.25 1.207 1.5 1.8125 3.4336 1.8125 5.7969 0 2.3555-0.60547 4.2812-1.8125 5.7812-1.2109 1.5-2.7617 2.25-4.6562 2.25-1.0625 0-2.0078-0.21094-2.8281-0.625-0.8125-0.42578-1.5586-1.0859-2.2344-1.9844v2.2188h-4.8906v-21.281h4.8906z"/>
  </symbol>
  <symbol id="j" overflow="visible">
   <path d="m0.34375-15.312h4.8906l4.125 10.391 3.5-10.391h4.8906l-6.4375 16.766c-0.64844 1.6953-1.4023 2.8828-2.2656 3.5625-0.86719 0.6875-2 1.0312-3.4062 1.0312h-2.8438v-3.2188h1.5312c0.83203 0 1.4375-0.13672 1.8125-0.40625 0.38281-0.26172 0.67969-0.73047 0.89062-1.4062l0.14062-0.42188z"/>
  </symbol>
  <symbol id="i" overflow="visible">
   <path d="m2.5781-20.406h6.6875l4.6562 10.922 4.6719-10.922h6.6875v20.406h-4.9844v-14.938l-4.7031 11.016h-3.3281l-4.7031-11.016v14.938h-4.9844z"/>
  </symbol>
  <symbol id="y" overflow="visible">
   <path d="m2.3594-15.312h4.8906v15.312h-4.8906zm0-5.9688h4.8906v4h-4.8906z"/>
  </symbol>
  <symbol id="h" overflow="visible">
   <path d="m17.75-9.3281v9.3281h-4.9219v-7.1406c0-1.3203-0.03125-2.2344-0.09375-2.7344s-0.16797-0.86719-0.3125-1.1094c-0.1875-0.3125-0.44922-0.55469-0.78125-0.73438-0.32422-0.17578-0.69531-0.26562-1.1094-0.26562-1.0234 0-1.8242 0.39844-2.4062 1.1875-0.58594 0.78125-0.875 1.8711-0.875 3.2656v7.5312h-4.8906v-15.312h4.8906v2.2344c0.73828-0.88281 1.5195-1.5391 2.3438-1.9688 0.83203-0.42578 1.75-0.64062 2.75-0.64062 1.7695 0 3.1133 0.54688 4.0312 1.6406 0.91406 1.0859 1.375 2.6562 1.375 4.7188z"/>
  </symbol>
  <symbol id="x" overflow="visible">
   <path d="m2.5781-20.406h5.25v16.422h9.25v3.9844h-14.5z"/>
  </symbol>
  <symbol id="g" overflow="visible">
   <path d="m2.5781-20.406h14.203v3.9688h-8.9531v3.7969h8.4219v3.9844h-8.4219v4.6719h9.25v3.9844h-14.5z"/>
  </symbol>
  <symbol id="w" overflow="visible">
   <path d="m10.75-12.516c0.82031 0 1.4453-0.17969 1.875-0.54688 0.4375-0.36328 0.65625-0.89844 0.65625-1.6094 0-0.69531-0.21875-1.2266-0.65625-1.5938-0.42969-0.375-1.0547-0.5625-1.875-0.5625h-2.9219v4.3125zm0.17188 8.9375c1.0625 0 1.8594-0.22266 2.3906-0.67188 0.53125-0.44531 0.79688-1.125 0.79688-2.0312 0-0.88281-0.26562-1.5469-0.79688-1.9844-0.52344-0.4375-1.3203-0.65625-2.3906-0.65625h-3.0938v5.3438zm4.8906-7.3438c1.1328 0.32422 2.0078 0.92969 2.625 1.8125 0.625 0.88672 0.9375 1.9688 0.9375 3.25 0 1.9688-0.66797 3.4375-2 4.4062-1.3359 0.96875-3.3555 1.4531-6.0625 1.4531h-8.7344v-20.406h7.8906c2.832 0 4.8828 0.42969 6.1562 1.2812 1.2812 0.85547 1.9219 2.2266 1.9219 4.1094 0 1-0.23438 1.8516-0.70312 2.5469-0.46875 0.6875-1.1484 1.2031-2.0312 1.5469z"/>
  </symbol>
  <symbol id="v" overflow="visible">
   <path d="m10.047-11.359c1.1016 0 1.8945-0.20312 2.375-0.60938 0.47656-0.41406 0.71875-1.0938 0.71875-2.0312 0-0.92578-0.24219-1.5859-0.71875-1.9844-0.48047-0.40625-1.2734-0.60938-2.375-0.60938h-2.2188v5.2344zm-2.2188 3.6406v7.7188h-5.25v-20.406h8.0312c2.6875 0 4.6562 0.45312 5.9062 1.3594 1.2578 0.89844 1.8906 2.3203 1.8906 4.2656 0 1.3555-0.32812 2.4648-0.98438 3.3281-0.64844 0.86719-1.625 1.5-2.9375 1.9062 0.71875 0.16797 1.3594 0.54297 1.9219 1.125 0.57031 0.57422 1.1484 1.4492 1.7344 2.625l2.8594 5.7969h-5.6094l-2.4844-5.0781c-0.5-1.0195-1.0117-1.7109-1.5312-2.0781-0.51172-0.375-1.1953-0.5625-2.0469-0.5625z"/>
  </symbol>
  <symbol id="u" overflow="visible">
   <path d="m0.14062-20.406h18.812v3.9688h-6.7656v16.438h-5.2656v-16.438h-6.7812z"/>
  </symbol>
  <symbol id="t" overflow="visible">
   <path d="m11.891-16.969c-1.6055 0-2.8516 0.59375-3.7344 1.7812-0.875 1.1875-1.3125 2.8555-1.3125 5 0 2.1484 0.4375 3.8125 1.3125 5 0.88281 1.1797 2.1289 1.7656 3.7344 1.7656 1.6133 0 2.8633-0.58594 3.75-1.7656 0.88281-1.1875 1.3281-2.8516 1.3281-5 0-2.1445-0.44531-3.8125-1.3281-5-0.88672-1.1875-2.1367-1.7812-3.75-1.7812zm0-3.8125c3.2812 0 5.8477 0.9375 7.7031 2.8125 1.8633 1.875 2.7969 4.4688 2.7969 7.7812 0 3.3047-0.93359 5.8906-2.7969 7.7656-1.8555 1.875-4.4219 2.8125-7.7031 2.8125-3.2734 0-5.8398-0.9375-7.7031-2.8125-1.8672-1.875-2.7969-4.4609-2.7969-7.7656 0-3.3125 0.92969-5.9062 2.7969-7.7812 1.8633-1.875 4.4297-2.8125 7.7031-2.8125z"/>
  </symbol>
  <symbol id="f" overflow="visible">
   <path d="m2.5781-20.406h5.875l7.4219 14v-14h4.9844v20.406h-5.875l-7.4219-14v14h-4.9844z"/>
  </symbol>
  <symbol id="s" overflow="visible">
   <path d="m12.422-21.281v3.2188h-2.7031c-0.6875 0-1.1719 0.125-1.4531 0.375-0.27344 0.25-0.40625 0.6875-0.40625 1.3125v1.0625h4.1875v3.5h-4.1875v11.812h-4.8906v-11.812h-2.4375v-3.5h2.4375v-1.0625c0-1.6641 0.46094-2.8984 1.3906-3.7031 0.92578-0.80078 2.3672-1.2031 4.3281-1.2031z"/>
  </symbol>
  <symbol id="d" overflow="visible">
   <path d="m9.6406-12.188c-1.0859 0-1.9141 0.39062-2.4844 1.1719-0.57422 0.78125-0.85938 1.9062-0.85938 3.375s0.28516 2.5938 0.85938 3.375c0.57031 0.77344 1.3984 1.1562 2.4844 1.1562 1.0625 0 1.875-0.38281 2.4375-1.1562 0.57031-0.78125 0.85938-1.9062 0.85938-3.375s-0.28906-2.5938-0.85938-3.375c-0.5625-0.78125-1.375-1.1719-2.4375-1.1719zm0-3.5c2.6328 0 4.6914 0.71484 6.1719 2.1406 1.4766 1.418 2.2188 3.3867 2.2188 5.9062 0 2.5117-0.74219 4.4805-2.2188 5.9062-1.4805 1.418-3.5391 2.125-6.1719 2.125-2.6484 0-4.7148-0.70703-6.2031-2.125-1.4922-1.4258-2.2344-3.3945-2.2344-5.9062 0-2.5195 0.74219-4.4883 2.2344-5.9062 1.4883-1.4258 3.5547-2.1406 6.2031-2.1406z"/>
  </symbol>
  <symbol id="r" overflow="visible">
   <path d="m16.547-12.766c0.61328-0.94531 1.3477-1.6719 2.2031-2.1719 0.85156-0.5 1.7891-0.75 2.8125-0.75 1.7578 0 3.0977 0.54688 4.0156 1.6406 0.92578 1.0859 1.3906 2.6562 1.3906 4.7188v9.3281h-4.9219v-7.9844-0.35938c0.007813-0.13281 0.015625-0.32031 0.015625-0.5625 0-1.082-0.16406-1.8633-0.48438-2.3438-0.3125-0.48828-0.82422-0.73438-1.5312-0.73438-0.92969 0-1.6484 0.38672-2.1562 1.1562-0.51172 0.76172-0.77344 1.8672-0.78125 3.3125v7.5156h-4.9219v-7.9844c0-1.6953-0.14844-2.7852-0.4375-3.2656-0.29297-0.48828-0.8125-0.73438-1.5625-0.73438-0.9375 0-1.6641 0.38672-2.1719 1.1562-0.51172 0.76172-0.76562 1.8594-0.76562 3.2969v7.5312h-4.9219v-15.312h4.9219v2.2344c0.60156-0.86328 1.2891-1.5156 2.0625-1.9531 0.78125-0.4375 1.6406-0.65625 2.5781-0.65625 1.0625 0 2 0.25781 2.8125 0.76562 0.8125 0.51172 1.4258 1.2305 1.8438 2.1562z"/>
  </symbol>
  <symbol id="q" overflow="visible">
   <path d="m17.75-9.3281v9.3281h-4.9219v-7.1094c0-1.3438-0.03125-2.2656-0.09375-2.7656s-0.16797-0.86719-0.3125-1.1094c-0.1875-0.3125-0.44922-0.55469-0.78125-0.73438-0.32422-0.17578-0.69531-0.26562-1.1094-0.26562-1.0234 0-1.8242 0.39844-2.4062 1.1875-0.58594 0.78125-0.875 1.8711-0.875 3.2656v7.5312h-4.8906v-21.281h4.8906v8.2031c0.73828-0.88281 1.5195-1.5391 2.3438-1.9688 0.83203-0.42578 1.75-0.64062 2.75-0.64062 1.7695 0 3.1133 0.54688 4.0312 1.6406 0.91406 1.0859 1.375 2.6562 1.375 4.7188z"/>
  </symbol>
  <symbol id="p" overflow="visible">
   <path d="m2.1875-5.9688v-9.3438h4.9219v1.5312c0 0.83594-0.007813 1.875-0.015625 3.125-0.011719 1.25-0.015625 2.0859-0.015625 2.5 0 1.2422 0.03125 2.1328 0.09375 2.6719 0.070313 0.54297 0.17969 0.93359 0.32812 1.1719 0.20703 0.32422 0.47266 0.57422 0.79688 0.75 0.32031 0.16797 0.69141 0.25 1.1094 0.25 1.0195 0 1.8203-0.39062 2.4062-1.1719 0.58203-0.78125 0.875-1.8672 0.875-3.2656v-7.5625h4.8906v15.312h-4.8906v-2.2188c-0.74219 0.89844-1.5234 1.5586-2.3438 1.9844-0.82422 0.41406-1.7344 0.625-2.7344 0.625-1.7617 0-3.1055-0.53906-4.0312-1.625-0.92969-1.082-1.3906-2.6602-1.3906-4.7344z"/>
  </symbol>
  <symbol id="o" overflow="visible">
   <path d="m2.5781-20.406h8.7344c2.5938 0 4.582 0.57812 5.9688 1.7344 1.3945 1.1484 2.0938 2.7891 2.0938 4.9219 0 2.1367-0.69922 3.7812-2.0938 4.9375-1.3867 1.1562-3.375 1.7344-5.9688 1.7344h-3.4844v7.0781h-5.25zm5.25 3.8125v5.7031h2.9219c1.0195 0 1.8047-0.25 2.3594-0.75 0.5625-0.5 0.84375-1.2031 0.84375-2.1094 0-0.91406-0.28125-1.6172-0.84375-2.1094-0.55469-0.48828-1.3398-0.73438-2.3594-0.73438z"/>
  </symbol>
  <symbol id="n" overflow="visible">
   <path d="m2.3594-15.312h4.8906v15.031c0 2.0508-0.49609 3.6172-1.4844 4.7031-0.98047 1.082-2.4062 1.625-4.2812 1.625h-2.4219v-3.2188h0.85938c0.92578 0 1.5625-0.21094 1.9062-0.625 0.35156-0.41797 0.53125-1.2461 0.53125-2.4844zm0-5.9688h4.8906v4h-4.8906z"/>
  </symbol>
  <symbol id="m" overflow="visible">
   <path d="m14.719-14.828v3.9844c-0.65625-0.45703-1.3242-0.79688-2-1.0156-0.66797-0.21875-1.3594-0.32812-2.0781-0.32812-1.3672 0-2.4336 0.40234-3.2031 1.2031-0.76172 0.79297-1.1406 1.9062-1.1406 3.3438 0 1.4297 0.37891 2.543 1.1406 3.3438 0.76953 0.79297 1.8359 1.1875 3.2031 1.1875 0.75781 0 1.4844-0.10938 2.1719-0.32812 0.6875-0.22656 1.3203-0.56641 1.9062-1.0156v4c-0.76172 0.28125-1.5391 0.48828-2.3281 0.625-0.78125 0.14453-1.5742 0.21875-2.375 0.21875-2.7617 0-4.9219-0.70703-6.4844-2.125-1.5547-1.4141-2.3281-3.3828-2.3281-5.9062 0-2.5312 0.77344-4.5039 2.3281-5.9219 1.5625-1.4141 3.7227-2.125 6.4844-2.125 0.80078 0 1.5938 0.074219 2.375 0.21875 0.78125 0.13672 1.5547 0.35156 2.3281 0.64062z"/>
  </symbol>
 </defs>
 <g>
  <path d="m404.53 401.48c-8.6055-1.9648-16.012-6.3438-21.941-12.434-3.1523-3.1523-5.9648-6.7188-8.5195-10.523 0.16797-0.26172 0.39062-0.50781 0.55859-0.77344 5.9883-8.9766 10.215-18.652 13.473-28.414l1.7266-5.1367-3.0508-4.4414c-3.3828-4.9336-6.4062-7.1289-10.852-9.4961-4.2734-2.1562-9.3633-3.0391-13.938-2.5977-9.3203 0.875-15.812 5.3477-20.91 9.6133l-5.9414 4.9883 2.1094 6.5508c3.4219 10.574 7.7891 19.473 13.43 28.379-2.5977 3.5508-5.4805 6.832-8.7969 9.6562-6.1953 5.332-13.914 8.875-22.688 10.41-8.7656 1.457-18.324 1.082-27.887-1.1406 7.8164 6.0703 17.594 9.957 28.113 11.082 10.5 1.25 21.957-1.1406 31.691-6.707 4.1445-2.4258 7.9141-5.3711 11.406-8.5586 3.1758 3.2695 6.5703 6.3555 10.383 9.0117 9.0039 6.2148 20.121 10.188 30.918 9.5859 10.797-0.29688 20.559-4.4844 28.621-10.051-9.6211 2.2109-19.27 2.8867-27.906 0.99609z"/>
  <path d="m531.79 410.33c-0.63672-0.28516-1.293-0.52734-1.9414-0.80469 10.207-10.305 19.152-21.828 25.816-34.766 0.63281-1.25 1.1602-2.5469 1.7539-3.8203 5.1367 0.035156 10.27 0.042969 15.422-0.14453 13.121-0.38672 26.27-1.3594 39.531-3.9492-12.852-4.1602-25.781-6.707-38.762-8.6914-3.5859-0.57031-7.1836-0.94531-10.77-1.3984 1.6758-5.7617 2.8164-11.648 3.293-17.613 0.35156-5.0391 0.10156-10.074-0.47656-15.055 2.3281-0.51953 4.6758-0.94141 6.9883-1.5117 12.398-2.957 24.707-6.4727 36.797-11.582-13.031-1.5391-25.84-1.5117-38.562-0.91797-2.6367 0.11328-5.2461 0.36328-7.875 0.54297-0.74609-2.582-1.5586-5.1289-2.5352-7.6055 0.77344 2.5312 1.3477 5.0898 1.8594 7.6602-9.8398 0.63672-19.645 1.5977-29.391 2.957-12.555 1.7812-25.043 4.0312-37.438 7.0859-12.383 2.957-24.691 6.4844-36.781 11.609 13.031 1.5625 25.832 1.5391 38.566 0.93359 12.738-0.50391 25.367-1.793 37.93-3.5664 9.5664-1.3789 19.074-3.1523 28.547-5.207 0.21875 10.836-1.6055 21.598-5.3242 31.684-7.9531-0.91797-15.902-1.6875-23.871-2.168-13.055-0.75781-26.137-1.0625-39.262-0.55859-13.113 0.39844-26.266 1.3594-39.523 3.9258 12.852 4.1445 25.781 6.6797 38.762 8.668 12.977 2.0703 26 3.3438 39.039 4.168 5.9297 0.35156 11.855 0.57031 17.797 0.6875-0.21875 0.37109-0.39844 0.77734-0.62109 1.1406-7.8008 12.98-18.184 24.07-29.734 33.82-8.668-3.5664-17.398-6.957-26.324-9.8828-12.605-4.25-25.434-7.9688-38.91-10.23 10.77 8.418 22.18 15.348 33.824 21.773 5.7109 3.207 11.504 6.2383 17.355 9.1211-2.2461 1.5508-4.4141 3.2188-6.7148 4.6875-40.074 25.496-87.691 39.008-134.55 39.227-46.77-0.52734-93.832-14.547-132.99-39.723-3.793-2.4766-7.4531-5.1445-11.078-7.8281 6.0977-3.4609 12.164-7.0039 18.109-10.758 13.031-8.082 25.793-16.676 37.832-26.695-15.125 4.0469-29.508 9.5195-43.637 15.496-8.5469 3.5508-16.918 7.4492-25.223 11.453-8.7812-7.7891-16.621-16.379-23.039-25.832 3.9531-0.61719 7.9062-1.1875 11.848-1.8555 13.559-2.5742 27.07-5.3438 40.422-9.0391 13.367-3.6133 26.641-7.7578 39.633-13.484-14.168-0.87891-28.055-0.19141-41.848 1.0625-13.805 1.1367-27.445 3.2305-41.043 5.4922-5.7852 1.0977-11.543 2.2578-17.297 3.4883-3.2383-7.0938-5.4414-14.469-6.4922-21.941 0.66797 0.011719 1.3281 0.035157 2 0.042969 14.789-0.16797 29.586-0.50781 44.379-1.8086 14.797-1.1914 29.59-2.9453 44.387-6.3047-14.797-3.3672-29.59-5.1133-44.387-6.3125-14.797-1.3008-29.59-1.6406-44.379-1.8047-0.78516 0.011719-1.5664 0.039063-2.3477 0.050782 0.39062-3.9258 1.0117-7.8398 2.1562-11.676 1.3008-4.8398 3.6445-10.664 5.6719-16.465l6.1445-17.215c4.0664-11.441 8.125-22.812 12.465-33.953 7.1328-18.25 15.254-35.867 25.828-51.23 1.8125-2.0625 3.5156-4.2383 5.375-6.2539 5.5273-6.2031 11.223-12.234 17.098-18.07 0.70703-0.69922 1.4297-1.4062 2.1328-2.1094 11.246-8.7188 24.039-15.527 38.062-19.941 21.941-6.9336 45.652-9.6719 69.441-10.543 23.688-1.1641 47.035 1.457 69.188 8.9727 22.141 7.3984 42.508 19.98 59.93 36.012 35.43 32.059 58.328 76.328 76.418 121.23-6.8359-23.367-15.434-46.34-26.746-68.141-5.7773-11.223-12.273-22.16-19.562-32.598 3.4492 3.9414 6.8203 7.9961 10.02 12.273-4.6797-15.938-13.453-30.684-23.969-43.859-5.3633-6.4961-10.953-12.902-17.23-18.609-2.3008-2.1094-4.6367-4.1094-6.9844-6.1328 10.852-5.6055 21.699-11.234 32.344-17.242 12.117-6.5508 24.062-13.422 35.973-20.355 0.14062 3.6406-0.066406 7.7656-0.58203 11.973-1.3828 9.9805-3.2539 20.43-5.5781 30.801-4.418 20.871-9.7227 41.848-13.973 63.426 12.059-18.465 21.719-38.121 29.898-58.621 3.8984-10.332 7.6953-20.793 10.02-32.121 1.1602-5.7188 2.2188-11.496 2.2305-18.324-0.035156-3.4492-0.32422-7.1836-2.2852-12.02-1.0547-2.3984-2.7891-5.2656-5.7773-7.5977-2.957-2.3672-6.8828-3.5742-10.008-3.7344l-3.2148-0.16797-2.9922 1.6172c-15.125 8.1719-30.07 16.656-44.867 25.402-14.953 8.4766-29.461 17.723-44.152 26.66l-7.5391 4.5859c-5.3828-2.8008-10.902-5.3477-16.582-7.5547-23.586-9.3125-49.402-12.785-74.277-12.461-24.758 0.023438-49.992 2.0273-74.648 9.375-6.7656 1.9414-13.453 4.4805-19.969 7.4688-5.6953-4.4297-11.48-8.7188-17.32-12.926-6.418-4.5859-12.695-9.3867-19.215-13.809-13.031-8.8633-25.898-17.988-39.25-26.387l-3.332-2.0938-3.5508 0.19141c-3.0977 0.16797-6.7422 1.1523-9.7891 3.168-3.0508 1.9766-5.2812 4.7031-6.5898 7.1016-2.6836 4.9062-3.3203 9.0312-3.7969 12.789-0.73828 7.4648 0.11719 13.914 1.0078 20.215 1.8242 12.555 5.1758 24.242 8.9805 35.719 3.6914 11.496 8.2773 22.613 13.094 33.57 2.6641 5.8984 5.4766 11.723 8.4336 17.484-4.0039 8.3828-7.582 16.867-10.969 25.266-4.5742 11.496-8.7695 23.012-12.926 34.457l-6.2344 17.121c-2 5.668-4.3242 11.098-6.3008 17.988-1.6289 5.7969-2.5156 11.793-2.9062 17.84-6.957 0.26953-13.895 0.63281-20.848 1.2383-14.797 1.1875-29.59 2.9453-44.387 6.332 14.797 3.3828 29.59 5.1445 44.387 6.3281 7.043 0.60938 14.105 0.99609 21.156 1.2617 0.27344 2.6758 0.57031 5.332 1.0859 7.957 1.3398 6.7148 3.3867 13.199 6.0039 19.395-0.83594 0.21875-1.668 0.375-2.5078 0.60938-13.367 3.5938-26.629 7.7578-39.613 13.508 14.172 0.89453 28.055 0.20703 41.848-1.043 2.1797-0.17969 4.3281-0.51953 6.5-0.73828 1.0352 1.8047 2.0391 3.6289 3.1602 5.375 6.6133 10.168 14.477 19.152 22.992 27.324-12.402 6.6211-24.73 13.402-36.68 20.922-13.031 8.082-25.793 16.684-37.824 26.719 15.137-4.043 29.523-9.5039 43.641-15.473 14.168-5.8906 27.906-12.609 41.551-19.516 0.80469-0.42578 1.5859-0.87891 2.3867-1.3008 6.3711 5.0625 12.926 9.8516 19.75 14.117 43.293 26.336 93.43 40.695 143.97 39.316 50.379-1.7656 99.496-18.363 140.14-47.188 3.707-2.7266 7.332-5.6094 10.871-8.5742 2.7734 1.2812 5.4922 2.625 8.2891 3.8633 12.125 5.3203 24.434 10.203 37.078 14.371 12.605 4.2383 25.441 7.9531 38.914 10.191-10.754-8.4219-22.164-15.379-33.812-21.805-11.566-6.4883-23.488-12.254-35.613-17.609zm-351.26-306.66c0.13281-0.0625 0.085938 0.011719-0.054688 0.14453 0.011719-0.015625 0.046876-0.13281 0.054688-0.14453zm9.6992 87.793-6.5234-34.621c-1.9492-11.441-3.7422-22.91-4.6094-33.867-0.40234-5.2695-0.28516-10.523 0.24219-14.785 10.473 7.0781 21.125 13.906 31.711 20.809 6.5898 4.3125 13.441 8.2539 20.148 12.395 3.3594 2.0703 6.8086 4.0156 10.199 6.0273-9.9531 6.5703-19.105 14.414-26.789 23.566-8.8633 10.359-15.961 21.668-22.023 33.32-0.80469-4.2617-1.543-8.5898-2.3555-12.844z"/>
  <path d="m298.08 269.16c0-10.062-8.1484-18.207-18.223-18.207-10.031 0-18.188 8.1484-18.188 18.207 0 10.035 8.1602 18.199 18.188 18.199 10.066 0 18.223-8.1602 18.223-18.199z"/>
  <path d="m439.69 250.95c-10.051 0-18.199 8.1484-18.199 18.207 0 10.035 8.1484 18.199 18.199 18.199 10.051 0 18.207-8.1641 18.207-18.199-0.003907-10.059-8.1562-18.207-18.207-18.207z"/>
  <use x="70" y="644" xlink:href="#z"/>
  <use x="90.550781" y="644" xlink:href="#c"/>
  <use x="104.359375" y="644" xlink:href="#b"/>
  <use x="123.347656" y="644" xlink:href="#e"/>
  <use x="142.242188" y="644" xlink:href="#a"/>
  <use x="155.628906" y="644" xlink:href="#b"/>
  <use x="174.617188" y="644" xlink:href="#l"/>
  <use x="204.410156" y="644" xlink:href="#k"/>
  <use x="224.453125" y="644" xlink:href="#j"/>
  <use x="252.453125" y="644" xlink:href="#i"/>
  <use x="280.3125" y="644" xlink:href="#e"/>
  <use x="299.210938" y="644" xlink:href="#c"/>
  <use x="313.015625" y="644" xlink:href="#a"/>
  <use x="326.402344" y="644" xlink:href="#y"/>
  <use x="336" y="644" xlink:href="#h"/>
  <use x="365.679688" y="644" xlink:href="#x"/>
  <use x="383.523438" y="644" xlink:href="#g"/>
  <use x="402.648438" y="644" xlink:href="#w"/>
  <use x="423.992188" y="644" xlink:href="#v"/>
  <use x="445.554687" y="644" xlink:href="#g"/>
  <use x="464.679688" y="644" xlink:href="#u"/>
  <use x="483.78125" y="644" xlink:href="#t"/>
  <use x="507.582031" y="644" xlink:href="#f"/>
  <use x="70" y="672" xlink:href="#s"/>
  <use x="82.183594" y="672" xlink:href="#c"/>
  <use x="95.992188" y="672" xlink:href="#d"/>
  <use x="115.226562" y="672" xlink:href="#r"/>
  <use x="154.152344" y="672" xlink:href="#a"/>
  <use x="167.535156" y="672" xlink:href="#q"/>
  <use x="187.46875" y="672" xlink:href="#b"/>
  <use x="216.207031" y="672" xlink:href="#f"/>
  <use x="239.640625" y="672" xlink:href="#d"/>
  <use x="258.878906" y="672" xlink:href="#p"/>
  <use x="278.8125" y="672" xlink:href="#h"/>
  <use x="308.492188" y="672" xlink:href="#o"/>
  <use x="329.015625" y="672" xlink:href="#c"/>
  <use x="342.820312" y="672" xlink:href="#d"/>
  <use x="362.058594" y="672" xlink:href="#n"/>
  <use x="371.65625" y="672" xlink:href="#b"/>
  <use x="390.648438" y="672" xlink:href="#m"/>
  <use x="407.242188" y="672" xlink:href="#a"/>
 </g>
</svg>
